<?xml version="1.0" encoding="utf-8"?>
<!-- Generator: Adobe Illustrator 25.4.1, SVG Export Plug-In . SVG Version: 6.00 Build 0)  -->
<svg version="1.1" id="Layer_1" xmlns="http://www.w3.org/2000/svg" xmlns:xlink="http://www.w3.org/1999/xlink" x="0px" y="0px"
	 viewBox="0 0 560 560" style="enable-background:new 0 0 560 560;" xml:space="preserve">
<path d="M280,0C205.7,0,134.5,29.5,82,82C29.5,134.5,0,205.7,0,280s29.5,145.5,82,198c52.5,52.5,123.7,82,198,82s145.5-29.5,198-82
	c52.5-52.5,82-123.7,82-198c-0.1-74.2-29.6-145.4-82.1-197.9C425.4,29.6,354.2,0.1,280,0L280,0z M371.8,288.4
	c-0.3,0.2-135.9,86.9-138.3,88.4c-1.8,1.3-3.9,2-6.1,2.1c-2.7,0-5.3-1.1-7.2-3c-1.9-1.9-3-4.5-3-7.2V191.2c0-2.7,1.1-5.3,3-7.2
	c1.9-1.9,4.5-3,7.2-3c2.2,0.1,4.3,0.8,6.1,2.1c2.4,1.5,138,88.3,138.3,88.4c2.8,1.9,4.5,5,4.5,8.4S374.6,286.5,371.8,288.4
	L371.8,288.4z"/>
</svg>
